PathFileType	4	(X/Y/Z)	Patient4_TMGait_0pt7_02_right_13.trc.trc
DataRate	CameraRate	NumFrames	NumMarkers	Units	OrigDataRate	OrigDataStartFrame	OrigNumFrames
85.365853658537	85.365853658537	5	33	mm	85.365853658537	18	       141
Frame#	Time	Sacral			L.Shoulder			Chest			R.Shoulder			Neck			R.ASIS			L.ASIS			R.Thigh.Superior			R.Thigh.Lateral			R.Thigh.Inferior			R.Patella			L.Thigh.Superior			L.Thigh.Lateral			L.Thigh.Inferior			L.Patella			L.Shank.Superior			L.Shank.Lateral			L.Shank.Inferior			R.Shank.Superior			R.Shank.Lateral			R.Shank.Inferior			R.Heel			R.Midfoot.Superior			R.Midfoot.Lateral			R.Toe			L.Heel			L.Midfoot.Lateral			L.Midfoot.Superior			L.Toe			L.Elbow			L.Wrist			R.Elbow			R.Wrist			
		X1	Y1	Z1	X2	Y2	Z2	X3	Y3	Z3	X4	Y4	Z4	X5	Y5	Z5	X6	Y6	Z6	X7	Y7	Z7	X8	Y8	Z8	X9	Y9	Z9	X10	Y10	Z10	X11	Y11	Z11	X12	Y12	Z12	X13	Y13	Z13	X14	Y14	Z14	X15	Y15	Z15	X16	Y16	Z16	X17	Y17	Z17	X18	Y18	Z18	X19	Y19	Z19	X20	Y20	Z20	X21	Y21	Z21	X22	Y22	Z22	X23	Y23	Z23	X24	Y24	Z24	X25	Y25	Z25	X26	Y26	Z26	X27	Y27	Z27	X28	Y28	Z28	X29	Y29	Z29	X30	Y30	Z30	X31	Y31	Z31	X32	Y32	Z32	X33	Y33	Z33	

18	14.159142857143	741.982510213265	1004.267054592991	435.970550955897	934.964074005314	1420.313300937779	239.501435482543	1034.297144022359	1351.518878398988	404.421746186888	953.247821596545	1440.538306951264	572.224978540209	940.236887216386	1486.986125672469	388.476425944507	966.256920301065	937.251032337618	557.178418511109	957.207996118789	959.309593934401	282.008886585710	1042.934510083833	771.021415181399	535.462682261341	1003.060576524222	650.581817760677	616.818121105385	1094.150612357909	613.558700654879	538.504630264363	1131.252664252193	531.806453361321	560.509066993550	963.601280051602	735.550829392668	311.008183152520	847.947907557104	639.566423102110	249.248677161193	910.213721635131	546.921293504870	312.149129698779	896.682797257486	481.574177764508	321.692903447450	867.356986455788	415.096782913374	314.319391187365	769.928300803797	305.249071254127	265.314760186245	817.562453924539	193.015490796310	339.498496750796	1114.485604110170	443.779550103021	572.734231902956	1060.935963544980	331.839708757534	638.921615477823	1131.601331043369	244.572813849547	591.386327250133	1042.370726335446	55.680266071180	566.192721616263	1204.480885405057	132.230920801546	608.256978035951	1126.264323080120	54.167492323328	639.275465325895	1328.419293370963	96.307574082590	634.488287862825	685.333603819937	38.633429308705	385.881011430190	759.506745505040	34.464198509653	305.435264540524	842.283787040309	96.145328801244	331.849557592667	970.807065475014	45.354029992651	305.362093673237	994.148936910650	1087.869872716789	106.078976584441	1240.067877325245	1009.467176843275	129.479713208473	849.167382188632	1125.051054792079	724.160242513716	867.164012255931	862.966290430717	747.282260135261	
19	14.170857142857	743.667720444468	1002.409653085942	437.578586983673	934.864783534193	1419.128735995276	241.074212479973	1034.654786321662	1350.506473158537	405.771869881353	953.611729922467	1439.199703599451	573.738095306331	940.335761987139	1485.627044179034	390.026073146578	967.821268565995	935.566438685647	558.670467584758	958.620671423152	957.909964838982	283.517804417734	1042.449643401756	767.062040477442	537.613444676159	999.853759561909	646.579490345074	617.757068845418	1091.076409920966	609.225159839031	539.862413452089	1126.964959371949	528.611762499725	560.930094901105	962.647244927526	733.682202186211	312.335031136052	845.740552592329	639.057611699909	250.094792444180	906.584399977055	545.638785845783	313.160505340105	892.378987347386	480.278599661036	322.409943132061	862.300731743080	414.200845244622	314.948157370310	763.805778135847	305.376661407915	265.738600141690	810.321738635618	192.553700494393	339.732550869788	1112.317595303883	440.646008837146	572.681575399025	1060.700704305597	326.907038685142	637.277354514086	1134.189287725508	241.735446027196	589.805022747624	1049.629330713709	51.154988463332	562.982910903913	1210.251276284120	130.550854352894	605.621276932285	1133.510867373398	50.817030887366	636.072749394046	1334.991032051338	96.856152894686	631.596663045749	677.081802675121	38.599693985373	385.873262442727	751.243210134676	34.452642228733	305.471579986122	834.054559441314	96.003261607909	331.982226224531	962.569037796629	45.114046999305	305.401992677895	994.231913441910	1087.182084179084	106.848940978611	1242.011050021707	1017.337499802722	131.667554114440	845.327158995387	1125.882698995293	725.833293587711	854.613571694855	863.696864400143	751.669336920773	
20	14.182571428571	745.503645498038	1000.387253867826	439.490584763093	934.787882421923	1417.797268462552	242.806820505952	1035.082409356045	1349.431550731009	407.292102666266	954.003011044281	1437.803232005762	575.414651237737	940.466705320844	1484.168778744132	391.732460175797	969.575044497388	933.779848607206	560.368346111704	960.143900263783	956.406003085003	285.235247298060	1042.456718399687	763.281139783057	539.897595831848	997.092553092924	642.586014896760	618.352711353328	1088.657571569367	605.176353640052	541.085801291354	1123.125669118096	525.290470831168	561.023573054835	962.135930527489	731.781885722781	313.698432683304	844.064794728642	638.404371499538	251.124391747838	903.656193211590	544.245556382675	314.274130348328	888.814719983143	478.777655460900	323.283768224347	857.868331648302	413.090728921214	315.721049905341	758.121763394176	305.486006681877	266.286670630118	803.284645095143	191.975358615158	340.024350646327	1110.075695020596	437.218605695024	572.223788895059	1059.454459686126	322.135064121915	635.042769412811	1135.024918239841	238.592533745984	587.688882545268	1053.432466551298	47.575327176562	559.283543997300	1213.215434264633	128.115935418934	602.298344566965	1137.230266458806	47.778750229893	632.422043847045	1338.328467879296	95.450659385901	628.144907348727	668.841985574888	38.568699395049	385.854624008279	743.003554386321	34.441656858504	305.511443984021	825.855289880894	95.850711715297	332.136792008736	954.368997317867	44.799413788093	305.435865249501	993.875526508160	1086.148733358011	107.863990105486	1243.086592062886	1024.234199663483	133.971562591494	841.584763302986	1126.659906961837	727.561407865731	843.511666486990	864.692455151760	755.346061873089	
21	14.194285714286	747.453754253654	998.269562481419	441.688905428058	934.759736613976	1416.347189210964	244.697185521172	1035.593839270618	1348.317140329398	408.986073439769	954.444665565469	1436.384175287018	577.255913215823	940.657141645221	1482.650870925052	393.595088587412	971.491485802616	931.943585831441	562.257323861668	961.769632464218	954.847796140533	287.138225772950	1042.976265310225	759.749686799773	542.275425375523	994.826925166405	638.703539687841	618.600301023046	1086.927292360620	601.495632850799	542.138447311816	1119.820191588303	521.931293586638	560.745547337603	962.086459726229	729.884875748037	315.091143536317	842.933328225316	637.614410662455	252.353943020070	901.465464711207	542.748696822672	315.488119059817	886.035336527583	477.066688335472	324.319167676476	854.089077710286	411.769747890611	316.648228836151	752.900811905305	305.593285856966	266.973362427001	796.458872478331	191.294372277003	340.383105960557	1107.876548639222	433.599399961889	571.376731692825	1057.454549011342	317.596534405102	632.408328393175	1134.335976816539	235.175095263453	585.156064884603	1054.000240789282	44.850323712330	555.396155847437	1213.642412188077	124.932970124630	598.443647797386	1137.699323752710	45.054839868301	628.593628432484	1338.762009074107	92.155416493381	624.262531517533	660.612451029440	38.577712986297	385.822750283096	734.790935134639	34.443868409395	305.556360827693	817.702191965557	95.698510293183	332.306997120222	946.211998127286	44.403161519693	305.459979619228	993.080658770629	1084.786272442392	109.141311524311	1243.364235485989	1030.067013003869	136.371773609644	838.015584371424	1127.368247524732	729.350050269400	833.823566335534	865.788263372256	758.419555455489	
22	14.206000000000	749.475978224070	996.141706582908	444.138102569251	934.813130293441	1414.824765640042	246.740871788231	1036.204948916819	1347.196219331762	410.854630968972	954.966620072974	1434.987684001874	579.261319005115	940.941449153840	1481.129242979849	395.612433408189	973.537738956039	930.131468610857	564.316815086767	963.496616033757	953.301752593166	289.195566536493	1044.000817740059	756.538775268953	544.693002127617	993.108011836641	635.060430421719	618.547109210809	1085.875037971918	598.258023753704	542.991635945892	1117.101643466391	518.636288408647	560.090172024787	962.491802216338	728.035954919682	316.512298192193	842.338816161822	636.709694186874	253.791789240833	900.026767966680	541.171136809123	316.797518997235	884.066924053926	475.157108143654	325.503239857643	850.968955288569	410.261898570339	317.726730265194	748.149025705671	305.733020685368	267.806443136239	789.847930329620	190.545612690079	340.808387376856	1105.826214529457	429.923840932843	570.198181599073	1055.001052172817	313.394143455878	629.619388917652	1132.410445989908	231.580734670039	582.362698022135	1051.719137171484	42.886740709684	551.631324994167	1211.894344816405	121.130696971100	594.267467679524	1135.354452742201	42.674947333063	624.865059914416	1336.728939596919	87.254370200785	620.114829660057	652.392758610175	38.687871848492	385.774595700107	726.608522607255	34.480876080167	305.606424167531	809.617873361612	95.561396032480	332.479454012187	938.102346177609	43.924202124644	305.470388398811	991.842126165654	1083.127167446787	110.703398205496	1242.907480865001	1034.759389136740	138.849059802547	834.713372683631	1127.992423965987	731.194731684317	825.502451553009	866.853045858917	760.996527216611	
